<svg width="720" height="520" viewBox="0 0 720 520" xmlns="http://www.w3.org/2000/svg" role="img" aria-label="Contribution types radar">
  <style>
    .bg{fill:#0b1220}
    .axis{stroke:#6BFF8A;stroke-width:4;stroke-linecap:round;opacity:.9}
    .poly{fill:rgba(90,255,120,.25);stroke:#6BFF8A;stroke-width:3}
    .dot{fill:#6BFF8A;stroke:#0b1220;stroke-width:2}
    .pct{fill:#BFD8BF;font:18px ui-sans-serif,system-ui,-apple-system,"Segoe UI",Roboto,"Helvetica Neue",Arial}
    .label{fill:#C7CED9;font:18px ui-sans-serif,system-ui,-apple-system,"Segoe UI",Roboto,"Helvetica Neue",Arial}
  </style>
  <rect class="bg" x="0" y="0" width="720" height="520" rx="16"/>
  <line class="axis" x1="360" y1="266" x2="360" y2="36"/><line class="axis" x1="360" y1="266" x2="590" y2="266"/><line class="axis" x1="360" y1="266" x2="360" y2="496"/><line class="axis" x1="360" y1="266" x2="130" y2="266"/>
  
  <line class="axis" x1="359" y1="36" x2="359" y2="496"/>
  <line class="axis" x1="130" y1="265" x2="590" y2="265"/>

  <polygon class="poly" points="360,266 360,266 360,266 220,266"/>
  <circle class="dot" cx="360" cy="266" r="6"/><circle class="dot" cx="360" cy="266" r="6"/><circle class="dot" cx="360" cy="266" r="6"/><circle class="dot" cx="220" cy="266" r="6"/>
  
  <text class="pct" x="360" y="16" text-anchor="middle">0%</text>
  <text class="label" x="360" y="36" text-anchor="middle">Code review</text>
  <text class="pct" x="604" y="260" text-anchor="start">0%</text>
  <text class="label" x="604" y="280" text-anchor="start">Issues</text>
  <text class="pct" x="360" y="504" text-anchor="middle">0%</text>
  <text class="label" x="360" y="524" text-anchor="middle">Pull requests</text>
  <text class="pct" x="116" y="260.00000000000006" text-anchor="end">100%</text>
  <text class="label" x="116" y="280.00000000000006" text-anchor="end">Commits</text>
</svg>